<svg version="1.1" baseProfile="full" xmlns="http://www.w3.org/2000/svg" xmlns:xlink="http://www.w3.org/1999/xlink">
  <defs>
    <symbol id="close" viewBox="0 0 24 24">
      <path d="m3.27734 20.7284c.18014.1815.41725.2716.65435.2716.23688 0 .47398-.0913.65549-.2716l7.41912-7.4191 7.4197 7.4191c.1803.1815.4172.2716.6543.2716.2358 0 .4726-.0913.6541-.2716.3617-.3617.3617-.948 0-1.3097l-7.4187-7.4188 7.4187-7.41883c.3617-.36187.3617-.94819 0-1.30984-.3616-.36164-.9479-.36164-1.3096 0l-7.4188 7.41887-7.41882-7.41887c-.36188-.36164-.9482-.36164-1.30984 0-.36165.36165-.36165.94797 0 1.30984l7.41916 7.41853-7.41916 7.4191c-.36165.3617-.36165.948 0 1.3097z"/>
    </symbol>
    <symbol id="comment" viewBox="0 0 24 24">
      <path d="m6.68395 19.057h-1.06283l.75153-.7515c.40522-.4052.65826-.9323.72629-1.504-1.7353-1.1388-2.59894-2.7886-2.59894-4.5181 0-3.19074 2.93261-6.4333 7.5254-6.4333 4.8656 0 7.4746 2.98376 7.4746 6.1538 0 3.1909-2.6366 6.1726-7.4746 6.1726-.8475 0-1.7319-.1131-2.52142-.3207-.74742.7666-1.76013 1.2012-2.82003 1.2012z"/>
    </symbol>
    <symbol id="email" viewBox="0 0 24 24">
      <path d="m4 8.62814c0-.21091.24508-.32705.40831-.19349l6.64179 5.43425c.5526.4521 1.3472.4521 1.8998 0l6.6418-5.43425c.1632-.13356.4083-.01742.4083.19349v7.37186c0 .9428 0 1.4142-.2929 1.7071s-.7643.2929-1.7071.2929h-12c-.94281 0-1.41421 0-1.70711-.2929-.29289-.2929-.29289-.7643-.29289-1.7071z"/><path d="m4.15648 6.93654c-.06897-.05642-.10451-.1458-.08278-.23222.04304-.17119.11121-.30344.21919-.41143.2929-.29289.7643-.29289 1.70711-.29289h12c.9428 0 1.4142 0 1.7071.29289.108.10799.1762.24024.2192.41143.0217.08642-.0138.1758-.0828.23222l-7.5269 6.15836c-.1842.1507-.449.1507-.6332 0z"/>
    </symbol>
    <symbol id="name" viewBox="0 0 24 24">
      <path d="m16 9c0 2.2091-1.7909 4-4 4-2.20914 0-4-1.7909-4-4 0-2.20914 1.79086-4 4-4 2.2091 0 4 1.79086 4 4z"/><path d="m5 19c0-2.7614 2.23858-5 5-5h4c2.7614 0 5 2.2386 5 5 0 .5523-.4477 1-1 1h-12c-.55228 0-1-.4477-1-1z"/>
    </symbol>
    <symbol id="phone" viewBox="0 0 24 24">
      <path d="m19.076 15.5085-2.0933-2.0933c-.7476-.7476-2.0185-.4485-2.3176.5233-.2243.6729-.9719 1.0467-1.6447.8971-1.4952-.3738-3.51376-2.3175-3.88756-3.8875-.22428-.6729.22428-1.42048.89716-1.64474.9719-.29904 1.2709-1.56997.5233-2.31757l-2.0933-2.0933c-.59809-.52332-1.49521-.52332-2.01854 0l-1.42045 1.42045c-1.42045 1.49521.14952 5.45756 3.66327 8.97126 3.51372 3.5138 7.47602 5.1585 8.97122 3.6633l1.4205-1.4205c.5233-.5981.5233-1.4952 0-2.0185z"/>
    </symbol>
    <symbol id="arrow" viewBox="0 0 24 24">
      <path clip-rule="evenodd" d="m12.0001.585815 6.7071 6.707105-1.4142 1.41422-4.2929-4.2929v19.58576h-2v-19.58576l-4.29292 4.2929-1.41421-1.41422z" fill-rule="evenodd"/>
    </symbol>
    <symbol id="hellip" viewBox="0 0 24 24">
      <circle cx="8" cy="12" r="1"/><circle cx="12" cy="12" r="1"/><circle cx="16" cy="12" r="1"/>
    </symbol>
    <symbol id="previous" viewBox="0 0 24 24">
      <path clip-rule="evenodd" d="m9.41436 12 6.79294-6.79294-1.4143-1.41421-8.20706 8.20715 8.20706 8.2071 1.4143-1.4143z" fill-rule="evenodd"/>
    </symbol>
    <symbol id="next" viewBox="0 0 24 24">
      <path clip-rule="evenodd" d="m14.0856 12-6.79286 6.7929 1.41422 1.4143 8.20714-8.2072-8.20714-8.20706-1.41422 1.41421z" fill-rule="evenodd"/>
    </symbol>
  </defs>
</svg>