<svg version="1.1" baseProfile="full" xmlns="http://www.w3.org/2000/svg" xmlns:xlink="http://www.w3.org/1999/xlink">
  <defs>
    <symbol id="email" viewBox="0 0 24 24">
      <path d="m4 8.62814c0-.21091.24508-.32705.40831-.19349l6.64179 5.43425c.5526.4521 1.3472.4521 1.8998 0l6.6418-5.43425c.1632-.13356.4083-.01742.4083.19349v7.37186c0 .9428 0 1.4142-.2929 1.7071s-.7643.2929-1.7071.2929h-12c-.94281 0-1.41421 0-1.70711-.2929-.29289-.2929-.29289-.7643-.29289-1.7071z"/><path d="m4.15648 6.93654c-.06897-.05642-.10451-.1458-.08278-.23222.04304-.17119.11121-.30344.21919-.41143.2929-.29289.7643-.29289 1.70711-.29289h12c.9428 0 1.4142 0 1.7071.29289.108.10799.1762.24024.2192.41143.0217.08642-.0138.1758-.0828.23222l-7.5269 6.15836c-.1842.1507-.449.1507-.6332 0z"/>
    </symbol>
    <symbol id="name" viewBox="0 0 24 24">
      <path d="m16 9c0 2.2091-1.7909 4-4 4-2.20914 0-4-1.7909-4-4 0-2.20914 1.79086-4 4-4 2.2091 0 4 1.79086 4 4z"/><path d="m5 19c0-2.7614 2.23858-5 5-5h4c2.7614 0 5 2.2386 5 5 0 .5523-.4477 1-1 1h-12c-.55228 0-1-.4477-1-1z"/>
    </symbol>
    <symbol id="password" viewBox="0 0 24 24">
      <path d="m11.4997 6c-.2762 0-.5.22386-.5.5v2.90194c0 .3849-.4167.62546-.75.43302l-2.51329-1.45104c-.23914-.13808-.54494-.05614-.68301.18301l-.5.86602c-.13807.23915-.05613.54495.18301.68305l2.51338 1.4511c.33333.1924.33333.6735 0 .866l-2.5131 1.4509c-.23915.1381-.32109.4439-.18302.683l.5.8661c.13807.2391.44387.3211.68302.183l2.51301-1.4509c.3333-.1924.75.0481.75.433v2.9018c0 .2761.2238.5.5.5h1c.2761 0 .5-.2239.5-.5v-2.9019c0-.3849.4167-.6255.75-.433l2.513 1.4509c.2391.138.5449.0561.683-.183l.5-.8661c.1381-.2391.0561-.5449-.183-.683l-2.5129-1.4508c-.3333-.1925-.3333-.6736 0-.866l2.5132-1.451c.2391-.13809.321-.44388.183-.68303l-.5-.86602c-.1381-.23915-.4439-.32109-.683-.18302l-2.5133 1.45104c-.3333.19243-.75-.04811-.75-.43301v-2.90206c0-.27614-.2239-.5-.5-.5z"/>
    </symbol>

  </defs>
</svg>